<?xml version="1.0" encoding="UTF-8"?>
<svg width="74px" height="54px" viewBox="0 0 74 54" version="1.1" xmlns="http://www.w3.org/2000/svg" xmlns:xlink="http://www.w3.org/1999/xlink">
    <title>logo</title>
    <g id="Page-1" stroke="none" stroke-width="1" fill="none" fill-rule="evenodd">
        <g id="logo" transform="translate(2.370000, 2.104000)">
            <polygon id="Path" stroke="#222831" stroke-width="2" points="69.5853922 25 34.7926961 50 0 25 34.7926961 0"></polygon>
            <g id="Group" transform="translate(20.516371, 23.404766)" stroke="#222831" stroke-width="2">
                <line x1="3.29622633e-15" y1="0.5" x2="0.510474946" y2="0.5" id="Path"></line>
                <line x1="1.54903622" y1="0.5" x2="28.0333697" y2="0.5" id="Path" stroke-dasharray="8.138299999999999,8.138299999999999"></line>
                <line x1="28.5526504" y1="0.5" x2="29.0631253" y2="0.5" id="Path"></line>
            </g>
            <g id="Group" transform="translate(14.919906, 14.972996)" fill="#222831" fill-rule="nonzero">
                <g id="Shape" transform="translate(14.505146, 21.858537)">
                    <path d="M1.12814963,1.6871197 C0.981388083,1.76369094 0.839731286,1.82750031 0.657236493,1.82750031 C0.361161024,1.82750031 0.211847103,1.66031976 0.176113856,1.36424429 L0.52323682,1.36424429 C0.913750153,1.36424429 1.16898763,1.20599706 1.16898763,0.912473966 C1.16898763,0.632988933 0.934169151,0.460703639 0.645750807,0.460703639 C0.185047168,0.460703639 0,0.897159717 0,1.27618736 C0,1.67563401 0.205466166,1.98064279 0.657236493,1.98064279 C0.869083595,1.98064279 1.05157839,1.91300486 1.20344468,1.81090987 L1.12814963,1.6871197 Z M0.167180545,1.21110181 C0.167180545,0.973730959 0.302456405,0.603636624 0.654684118,0.603636624 C0.833350349,0.603636624 1.00435946,0.700626863 1.00435946,0.909921591 C1.00435946,1.13580675 0.79889329,1.21110181 0.52323682,1.21110181 L0.167180545,1.21110181 Z M1.50334872,1.81090987 C1.63862458,1.91555723 1.8083575,1.98064279 2.00489035,1.98064279 C2.27544207,1.98064279 2.53578429,1.86068118 2.53578429,1.55822477 C2.53578429,1.39997754 2.46559399,1.29405399 2.33414669,1.21493037 C2.1108139,1.07965451 1.75603381,1.04774983 1.75603381,0.812931351 C1.75603381,0.695522114 1.84664312,0.612569935 2.01382366,0.612569935 C2.10443296,0.612569935 2.23715645,0.636817495 2.36094662,0.700626863 L2.39285131,0.551312942 C2.29841344,0.492608323 2.13761384,0.460703639 2.01637604,0.460703639 C1.77900519,0.460703639 1.58502471,0.589598563 1.58502471,0.829521787 C1.58502471,1.1409115 1.91172867,1.17919713 2.16313758,1.29915874 C2.29841344,1.36424429 2.36605137,1.4344346 2.36605137,1.56077715 C2.36605137,1.75731 2.19887083,1.82750031 2.0202046,1.82750031 C1.86450974,1.82750031 1.71774819,1.77517662 1.58502471,1.6871197 L1.50334872,1.81090987 Z M3.0296688,0.490055948 L3.0296688,0.119961612 L2.86759301,0.119961612 L2.86759301,1.53142484 C2.86759301,1.80197656 2.96458325,1.98064279 3.23513497,1.98064279 C3.42018214,1.98064279 3.54652469,1.89513824 3.63458161,1.74327194 L3.51334382,1.65521501 C3.45208682,1.77262425 3.34999183,1.82750031 3.23513497,1.82750031 C3.06795442,1.82750031 3.0296688,1.71391963 3.0296688,1.53142484 L3.0296688,0.650855556 L3.49292482,0.650855556 L3.49292482,0.490055948 L3.0296688,0.490055948 Z M4.04806632,1.71391963 C3.98042839,1.71391963 3.92427615,1.76879569 3.92427615,1.84026218 C3.92427615,1.90790011 3.98042839,1.96277617 4.04806632,1.96277617 C4.11825663,1.96277617 4.17440887,1.90790011 4.17440887,1.84026218 C4.17440887,1.76879569 4.11825663,1.71391963 4.04806632,1.71391963 Z M5.51568179,0.504094009 C5.58331972,0.275656471 5.7568812,0.146761547 5.99169968,0.146761547 C6.23800384,0.146761547 6.3936987,0.293523094 6.3936987,0.510474946 C6.3936987,0.806550415 6.10272798,0.982664271 5.88194756,1.14984482 C5.58842447,1.37062523 5.37530118,1.59268183 5.37530118,1.91300486 L5.37530118,1.95129048 L6.65404092,1.95129048 L6.65404092,1.78410994 L5.56290072,1.78410994 C5.60118634,1.62203414 5.71221464,1.50207253 5.87429044,1.37062523 C6.20865153,1.09369257 6.55705068,0.935445338 6.55705068,0.513027321 C6.55705068,0.196532854 6.35796545,0 5.99425205,0 C5.68030996,0 5.47994854,0.146761547 5.37785355,0.433903704 L5.51568179,0.504094009 Z M8.96138768,0.504094009 C9.02902561,0.275656471 9.20258709,0.146761547 9.43740556,0.146761547 C9.68370972,0.146761547 9.83940458,0.293523094 9.83940458,0.510474946 C9.83940458,0.806550415 9.54843386,0.982664271 9.32765345,1.14984482 C9.03413035,1.37062523 8.82100706,1.59268183 8.82100706,1.91300486 L8.82100706,1.95129048 L10.0997468,1.95129048 L10.0997468,1.78410994 L9.00860661,1.78410994 C9.04689223,1.62203414 9.15792053,1.50207253 9.31999632,1.37062523 C9.65435741,1.09369257 10.0027566,0.935445338 10.0027566,0.513027321 C10.0027566,0.196532854 9.80367134,0 9.43995794,0 C9.12601585,0 8.92565443,0.146761547 8.82355944,0.433903704 L8.96138768,0.504094009 Z M7.68137175,0.00510474946 C7.1708968,0.00510474946 6.88630702,0.468360763 6.88630702,0.991597582 C6.88630702,1.50845347 7.16579205,1.98064279 7.68137175,1.98064279 C8.18674194,1.98064279 8.47771266,1.52887246 8.47771266,1.00053089 C8.47771266,0.477294074 8.19567526,0.00510474946 7.68137175,0.00510474946 Z M11.1270776,0.00510474946 C10.6166027,0.00510474946 10.3320129,0.468360763 10.3320129,0.991597582 C10.3320129,1.50845347 10.6114979,1.98064279 11.1270776,1.98064279 C11.6324478,1.98064279 11.9234185,1.52887246 11.9234185,1.00053089 C11.9234185,0.477294074 11.6413811,0.00510474946 11.1270776,0.00510474946 Z M7.68520031,0.167180545 C8.08719933,0.167180545 8.29521787,0.553865316 8.29521787,0.989045208 C8.29521787,1.40252991 8.10761833,1.81984318 7.68775269,1.81984318 C7.27937273,1.81984318 7.07135419,1.42039654 7.07135419,0.991597582 C7.07135419,0.565351003 7.27682035,0.167180545 7.68520031,0.167180545 Z M11.1309062,0.167180545 C11.5329052,0.167180545 11.7409238,0.553865316 11.7409238,0.989045208 C11.7409238,1.40252991 11.5533242,1.81984318 11.1334586,1.81984318 C10.7250786,1.81984318 10.5170601,1.42039654 10.5170601,0.991597582 C10.5170601,0.565351003 10.7225262,0.167180545 11.1309062,0.167180545 Z"></path>
                </g>
                <g id="Shape">
                    <path d="M8.54152203,4.66701719 L8.54152203,3.81452403 L8.08592314,3.81452403 L6.93352595,0.117409238 L4.43475109,0.117409238 L4.43475109,0.957140524 L4.70147425,0.957140524 L3.82218116,3.81452403 L3.38062033,3.81452403 L3.38062033,4.66701719 L5.44932005,4.66701719 L5.44932005,3.81452403 L4.94267366,3.81452403 L5.07922571,3.37168702 L6.41284151,3.37168702 L6.54939356,3.81452403 L5.93171887,3.81452403 L5.93171887,4.66701719 L8.54152203,4.66701719 Z M5.31914894,2.59066035 L5.74284314,1.18430187 L6.1716421,2.59066035 L5.31914894,2.59066035 Z M8.80186425,4.66701719 L9.94022338,4.66701719 L10.0116899,4.16547556 C10.2592702,4.45899865 10.7148691,4.76528362 11.3721056,4.76528362 C12.1467513,4.76528362 13.0975109,4.40029403 13.0975109,3.38444889 C13.0975109,1.85557643 10.5196124,2.01127129 10.5196124,1.34127292 C10.5196124,1.11283538 10.7799547,0.996702332 10.9688304,0.996702332 C11.4244293,0.996702332 11.8021807,1.26980643 11.8021807,1.75092906 L12.9801017,1.75092906 L12.9801017,0.117409238 L11.8608854,0.117409238 L11.7957998,0.66361743 C11.5354576,0.176113856 10.9815923,0 10.4353841,0 C9.7972904,0 8.88609262,0.436456079 8.88609262,1.39997754 C8.88609262,3.05902111 11.3861437,2.84462164 11.3861437,3.35254421 C11.3861437,3.6256483 11.0607159,3.67797199 10.8322784,3.67797199 C10.5591743,3.66521011 10.0116899,3.57332462 10.0116899,3.02711643 L8.80186425,3.02711643 L8.80186425,4.66701719 Z M13.4229387,0.117409238 L13.4229387,0.969902397 L13.7866521,0.969902397 L13.7866521,3.8081431 L13.4229387,3.8081431 L13.4229387,4.66701719 L15.5184384,4.66701719 L15.5184384,3.8081431 L15.1215441,3.8081431 L15.1215441,2.79867889 L15.6167048,2.79867889 C16.5470454,2.79867889 17.328072,2.36987994 17.328072,1.50972965 C17.328072,0.768264794 17.0409299,0.117409238 15.5312002,0.117409238 L13.4229387,0.117409238 Z M15.1215441,0.96352146 L15.4469719,0.96352146 C15.8247233,0.96352146 16.0518847,1.17154 16.0518847,1.5556724 C16.0518847,1.90024299 15.7915425,2.09549965 15.413791,2.09549965 L15.1215441,2.09549965 L15.1215441,0.96352146 Z M17.5884143,0.117409238 L17.5884143,0.976283334 L17.9457467,0.976283334 L17.9457467,3.8081431 L17.5884143,3.8081431 L17.5884143,4.66701719 L19.6966758,4.66701719 L19.6966758,3.8081431 L19.2934006,3.8081431 L19.2934006,2.82547883 L20.5300261,2.82547883 L20.5300261,3.8081431 L20.1458937,3.8081431 L20.1458937,4.66701719 L22.2618124,4.66701719 L22.2618124,3.8081431 L21.8840609,3.8081431 L21.8840609,0.976283334 L22.2618124,0.976283334 L22.2618124,0.117409238 L20.1458937,0.117409238 L20.1458937,0.976283334 L20.5300261,0.976283334 L20.5300261,1.9589476 L19.2934006,1.9589476 L19.2934006,0.976283334 L19.6966758,0.976283334 L19.6966758,0.117409238 L17.5884143,0.117409238 Z M27.6830563,4.66701719 L27.6830563,3.81452403 L27.2274574,3.81452403 L26.0750602,0.117409238 L23.5762854,0.117409238 L23.5762854,0.957140524 L23.8430085,0.957140524 L22.9637154,3.81452403 L22.5221546,3.81452403 L22.5221546,4.66701719 L24.5908543,4.66701719 L24.5908543,3.81452403 L24.0842079,3.81452403 L24.22076,3.37168702 L25.5543758,3.37168702 L25.6909278,3.81452403 L25.0732532,3.81452403 L25.0732532,4.66701719 L27.6830563,4.66701719 Z M24.4606832,2.59066035 L24.8843774,1.18430187 L25.3144526,2.59066035 L24.4606832,2.59066035 Z M27.9433985,0.117409238 L27.9433985,0.976283334 L28.300731,0.976283334 L28.300731,3.80176216 L27.9433985,3.80176216 L27.9433985,4.66701719 L31.5881897,4.66701719 L31.5881897,2.97479275 L30.4944971,2.97479275 L30.4944971,3.80176216 L29.6547658,3.80176216 L29.6547658,0.976283334 L30.0006126,0.976283334 L30.0006126,0.117409238 L27.9433985,0.117409238 Z M36.215645,0.117409238 L31.8485319,0.117409238 L31.8485319,1.80963368 L32.8056724,1.80963368 L32.8056724,0.976283334 L33.3646425,0.976283334 L33.3646425,3.80176216 L32.8311961,3.80176216 L32.8311961,4.66701719 L35.2521236,4.66701719 L35.2521236,3.80176216 L34.7122963,3.80176216 L34.7122963,0.976283334 L35.2585045,0.976283334 L35.2585045,1.80963368 L36.215645,1.80963368 L36.215645,0.117409238 Z"></path>
                    <path d="M0,17.0460346 L1.13835913,17.0460346 L1.20982562,16.544493 C1.45740597,16.8380161 1.91300486,17.1443011 2.57024135,17.1443011 C3.34488708,17.1443011 4.29564667,16.7793115 4.29564667,15.7634663 C4.29564667,14.2345939 1.71774819,14.3902887 1.71774819,13.7202904 C1.71774819,13.4918528 1.97809042,13.3757198 2.16696615,13.3757198 C2.62256503,13.3757198 3.00031649,13.6488239 3.00031649,14.1299465 L4.17823743,14.1299465 L4.17823743,12.4964267 L3.05902111,12.4964267 L2.99393556,13.0426349 C2.73359334,12.5551313 2.17972802,12.3790174 1.63351983,12.3790174 C0.995426144,12.3790174 0.0842283661,12.8154735 0.0842283661,13.778995 C0.0842283661,15.4380386 2.58300323,15.2236391 2.58300323,15.7315616 C2.58300323,16.0046657 2.25757545,16.0569894 2.0304141,16.0569894 C1.75731,16.0442275 1.20982562,15.9523421 1.20982562,15.4061339 L0,15.4061339 L0,17.0460346 Z M6.88503083,17.1634439 C8.35647486,17.1634439 9.17706334,16.265008 9.17706334,14.7935639 C9.17706334,13.329777 8.43432229,12.3726365 6.84036427,12.3726365 C5.49271042,12.3726365 4.55598889,13.3425389 4.55598889,14.7488974 C4.55598889,16.3760363 5.5246151,17.1634439 6.88503083,17.1634439 Z M6.88503083,16.1412178 C6.46899375,16.1412178 6.16270878,15.6013905 6.16270878,14.7488974 C6.16270878,13.9410708 6.43581288,13.3693388 6.83398334,13.3757198 C7.33424879,13.3757198 7.54992445,14.0061563 7.54992445,14.7935639 C7.54992445,15.6013905 7.29596316,16.1412178 6.88503083,16.1412178 Z M9.43740556,12.4964267 L9.43740556,13.3553008 L9.79473802,13.3553008 L9.79473802,16.1807796 L9.43740556,16.1807796 L9.43740556,17.0460346 L13.0809205,17.0460346 L13.0809205,15.3538102 L11.9885041,15.3538102 L11.9885041,16.1807796 L11.1487728,16.1807796 L11.1487728,13.3553008 L11.4933434,13.3553008 L11.4933434,12.4964267 L9.43740556,12.4964267 Z M13.3425389,12.4964267 L13.3425389,13.3425389 L13.7062523,13.3425389 L13.7062523,14.950535 C13.7062523,16.4283599 14.4094315,17.1175011 15.7239045,17.1570629 C16.9477682,17.1570629 17.5922428,16.4602646 17.5922428,14.9173541 L17.5922428,13.336158 L17.9431943,13.336158 L17.9431943,12.4964267 L16.0174276,12.4964267 L16.0174276,13.3553008 L16.3683791,13.3553008 L16.3683791,14.7348593 C16.3683791,15.8553518 16.1080369,16.0110467 15.7111426,16.0110467 C15.2951056,16.0110467 15.0602871,15.7902663 15.0602871,14.7425164 L15.0602871,13.336158 L15.4112386,13.336158 L15.4112386,12.4964267 L13.3425389,12.4964267 Z M22.5055642,12.4964267 L18.138451,12.4964267 L18.138451,14.1886511 L19.0955915,14.1886511 L19.0955915,13.3553008 L19.6545616,13.3553008 L19.6545616,16.1807796 L19.1211153,16.1807796 L19.1211153,17.0460346 L21.5420427,17.0460346 L21.5420427,16.1807796 L21.0022155,16.1807796 L21.0022155,13.3553008 L21.5496998,13.3553008 L21.5496998,14.1886511 L22.5055642,14.1886511 L22.5055642,12.4964267 Z M22.7659064,12.4964267 L22.7659064,13.3553008 L23.1768387,13.3553008 L23.1768387,16.1807796 L22.7659064,16.1807796 L22.7659064,17.0460346 L24.9264916,17.0460346 L24.9264916,16.1807796 L24.5232164,16.1807796 L24.5232164,13.3553008 L24.9264916,13.3553008 L24.9264916,12.4964267 L22.7659064,12.4964267 Z M27.517152,17.1634439 C28.988596,17.1634439 29.8079083,16.265008 29.8079083,14.7935639 C29.8079083,13.329777 29.0664434,12.3726365 27.4724854,12.3726365 C26.1248315,12.3726365 25.1868338,13.3425389 25.1868338,14.7488974 C25.1868338,16.3760363 26.1567362,17.1634439 27.517152,17.1634439 Z M27.517152,16.1412178 C27.1011149,16.1412178 26.7948299,15.6013905 26.7948299,14.7488974 C26.7948299,13.9410708 27.067934,13.3693388 27.4661045,13.3757198 C27.9663699,13.3757198 28.1807694,14.0061563 28.1807694,14.7935639 C28.1807694,15.6013905 27.9280843,16.1412178 27.517152,16.1412178 Z M35.0543145,13.336158 L35.0543145,12.4964267 L33.0953669,12.4964267 L33.0953669,13.336158 L33.5382039,13.336158 L33.5382039,14.8854494 L31.9429697,12.4964267 L30.0759076,12.4964267 L30.0759076,13.336158 L30.4523829,13.336158 L30.4523829,16.2063033 L30.0695267,16.2063033 L30.0695267,17.0460346 L32.0667599,17.0460346 L32.0667599,16.2063033 L31.5664945,16.2063033 L31.5664945,14.5664026 L33.225538,17.0460346 L34.6255156,17.0460346 L34.6255156,13.336158 L35.0543145,13.336158 Z M35.3797423,17.0460346 L36.5193776,17.0460346 L36.5908441,16.544493 C36.8384245,16.8380161 37.2927472,17.1443011 37.9512599,17.1443011 C38.7246294,17.1443011 39.675389,16.7793115 39.675389,15.7634663 C39.675389,14.2345939 37.0974905,14.3902887 37.0974905,13.7202904 C37.0974905,13.4918528 37.3578327,13.3757198 37.5467085,13.3757198 C38.0023073,13.3757198 38.3800588,13.6488239 38.3800588,14.1299465 L39.5579797,14.1299465 L39.5579797,12.4964267 L38.4387634,12.4964267 L38.3736779,13.0426349 C38.1133356,12.5551313 37.5607465,12.3790174 37.0132621,12.3790174 C36.3751685,12.3790174 35.4639707,12.8154735 35.4639707,13.778995 C35.4639707,15.4380386 37.9640217,15.2236391 37.9640217,15.7315616 C37.9640217,16.0046657 37.6385939,16.0569894 37.4101564,16.0569894 C37.1370523,16.0442275 36.5908441,15.9523421 36.5908441,15.4061339 L35.3797423,15.4061339 L35.3797423,17.0460346 Z"></path>
                </g>
            </g>
        </g>
    </g>
</svg>