<?xml version="1.0" encoding="UTF-8"?>
<svg width="564px" height="406px" viewBox="0 0 564 406" version="1.1" xmlns="http://www.w3.org/2000/svg" xmlns:xlink="http://www.w3.org/1999/xlink">
    <title>logo</title>
    <g id="Page-1" stroke="none" stroke-width="1" fill="none" fill-rule="evenodd">
        <g id="logo" transform="translate(9.370000, 7.104000)">
            <polygon id="Path" stroke="#EEEEEE" stroke-width="10" points="545.26 195.896 272.63 391.792 0 195.896 272.63 0"></polygon>
            <g id="Group" transform="translate(160.763000, 183.396000)" stroke="#EEEEEE" stroke-width="5">
                <line x1="-3.91919855e-23" y1="0.5" x2="4" y2="0.5" id="Path"></line>
                <line x1="12.138" y1="0.5" x2="219.665" y2="0.5" id="Path" stroke-dasharray="8.138299999999999,8.138299999999999"></line>
                <line x1="223.734" y1="0.5" x2="227.734" y2="0.5" id="Path"></line>
            </g>
            <g id="Group" transform="translate(116.910000, 117.326000)" fill="#EEEEEE" fill-rule="nonzero">
                <g id="Shape" transform="translate(113.660000, 171.280000)">
                    <path d="M8.84,13.22 C7.69,13.82 6.58,14.32 5.15,14.32 C2.83,14.32 1.66,13.01 1.38,10.69 L4.1,10.69 C7.16,10.69 9.16,9.45 9.16,7.15 C9.16,4.96 7.32,3.61 5.06,3.61 C1.45,3.61 0,7.03 0,10 C0,13.13 1.61,15.52 5.15,15.52 C6.81,15.52 8.24,14.99 9.43,14.19 L8.84,13.22 Z M1.31,9.49 C1.31,7.63 2.37,4.73 5.13,4.73 C6.53,4.73 7.87,5.49 7.87,7.13 C7.87,8.9 6.26,9.49 4.1,9.49 L1.31,9.49 Z M11.78,14.19 C12.84,15.01 14.17,15.52 15.71,15.52 C17.83,15.52 19.87,14.58 19.87,12.21 C19.87,10.97 19.32,10.14 18.29,9.52 C16.54,8.46 13.76,8.21 13.76,6.37 C13.76,5.45 14.47,4.8 15.78,4.8 C16.49,4.8 17.53,4.99 18.5,5.49 L18.75,4.32 C18.01,3.86 16.75,3.61 15.8,3.61 C13.94,3.61 12.42,4.62 12.42,6.5 C12.42,8.94 14.98,9.24 16.95,10.18 C18.01,10.69 18.54,11.24 18.54,12.23 C18.54,13.77 17.23,14.32 15.83,14.32 C14.61,14.32 13.46,13.91 12.42,13.22 L11.78,14.19 Z M23.74,3.84 L23.74,0.94 L22.47,0.94 L22.47,12 C22.47,14.12 23.23,15.52 25.35,15.52 C26.8,15.52 27.79,14.85 28.48,13.66 L27.53,12.97 C27.05,13.89 26.25,14.32 25.35,14.32 C24.04,14.32 23.74,13.43 23.74,12 L23.74,5.1 L27.37,5.1 L27.37,3.84 L23.74,3.84 Z M31.72,13.43 C31.19,13.43 30.75,13.86 30.75,14.42 C30.75,14.95 31.19,15.38 31.72,15.38 C32.27,15.38 32.71,14.95 32.71,14.42 C32.71,13.86 32.27,13.43 31.72,13.43 Z M43.22,3.95 C43.75,2.16 45.11,1.15 46.95,1.15 C48.88,1.15 50.1,2.3 50.1,4 C50.1,6.32 47.82,7.7 46.09,9.01 C43.79,10.74 42.12,12.48 42.12,14.99 L42.12,15.29 L52.14,15.29 L52.14,13.98 L43.59,13.98 C43.89,12.71 44.76,11.77 46.03,10.74 C48.65,8.57 51.38,7.33 51.38,4.02 C51.38,1.54 49.82,0 46.97,0 C44.51,0 42.94,1.15 42.14,3.4 L43.22,3.95 Z M70.22,3.95 C70.75,2.16 72.11,1.15 73.95,1.15 C75.88,1.15 77.1,2.3 77.1,4 C77.1,6.32 74.82,7.7 73.09,9.01 C70.79,10.74 69.12,12.48 69.12,14.99 L69.12,15.29 L79.14,15.29 L79.14,13.98 L70.59,13.98 C70.89,12.71 71.76,11.77 73.03,10.74 C75.65,8.57 78.38,7.33 78.38,4.02 C78.38,1.54 76.82,0 73.97,0 C71.51,0 69.94,1.15 69.14,3.4 L70.22,3.95 Z M60.19,0.04 C56.19,0.04 53.96,3.67 53.96,7.77 C53.96,11.82 56.15,15.52 60.19,15.52 C64.15,15.52 66.43,11.98 66.43,7.84 C66.43,3.74 64.22,0.04 60.19,0.04 Z M87.19,0.04 C83.19,0.04 80.96,3.67 80.96,7.77 C80.96,11.82 83.15,15.52 87.19,15.52 C91.15,15.52 93.43,11.98 93.43,7.84 C93.43,3.74 91.22,0.04 87.19,0.04 Z M60.22,1.31 C63.37,1.31 65,4.34 65,7.75 C65,10.99 63.53,14.26 60.24,14.26 C57.04,14.26 55.41,11.13 55.41,7.77 C55.41,4.43 57.02,1.31 60.22,1.31 Z M87.22,1.31 C90.37,1.31 92,4.34 92,7.75 C92,10.99 90.53,14.26 87.24,14.26 C84.04,14.26 82.41,11.13 82.41,7.77 C82.41,4.43 84.02,1.31 87.22,1.31 Z"></path>
                </g>
                <g id="Shape" transform="translate(0.000000, 0.000000)">
                    <path d="M66.93,36.57 L66.93,29.89 L63.36,29.89 L54.33,0.92 L34.75,0.92 L34.75,7.5 L36.84,7.5 L29.95,29.89 L26.49,29.89 L26.49,36.57 L42.7,36.57 L42.7,29.89 L38.73,29.89 L39.8,26.42 L50.25,26.42 L51.32,29.89 L46.48,29.89 L46.48,36.57 L66.93,36.57 Z M41.68,20.3 L45,9.28 L48.36,20.3 L41.68,20.3 Z M68.97,36.57 L77.89,36.57 L78.45,32.64 C80.39,34.94 83.96,37.34 89.11,37.34 C95.18,37.34 102.63,34.48 102.63,26.52 C102.63,14.54 82.43,15.76 82.43,10.51 C82.43,8.72 84.47,7.81 85.95,7.81 C89.52,7.81 92.48,9.95 92.48,13.72 L101.71,13.72 L101.71,0.92 L92.94,0.92 L92.43,5.2 C90.39,1.38 86.05,0 81.77,0 C76.77,0 69.63,3.42 69.63,10.97 C69.63,23.97 89.22,22.29 89.22,26.27 C89.22,28.41 86.67,28.82 84.88,28.82 C82.74,28.72 78.45,28 78.45,23.72 L68.97,23.72 L68.97,36.57 Z M105.18,0.92 L105.18,7.6 L108.03,7.6 L108.03,29.84 L105.18,29.84 L105.18,36.57 L121.6,36.57 L121.6,29.84 L118.49,29.84 L118.49,21.93 L122.37,21.93 C129.66,21.93 135.78,18.57 135.78,11.83 C135.78,6.02 133.53,0.92 121.7,0.92 L105.18,0.92 Z M118.49,7.55 L121.04,7.55 C124,7.55 125.78,9.18 125.78,12.19 C125.78,14.89 123.74,16.42 120.78,16.42 L118.49,16.42 L118.49,7.55 Z M137.82,0.92 L137.82,7.65 L140.62,7.65 L140.62,29.84 L137.82,29.84 L137.82,36.57 L154.34,36.57 L154.34,29.84 L151.18,29.84 L151.18,22.14 L160.87,22.14 L160.87,29.84 L157.86,29.84 L157.86,36.57 L174.44,36.57 L174.44,29.84 L171.48,29.84 L171.48,7.65 L174.44,7.65 L174.44,0.92 L157.86,0.92 L157.86,7.65 L160.87,7.65 L160.87,15.35 L151.18,15.35 L151.18,7.65 L154.34,7.65 L154.34,0.92 L137.82,0.92 Z M216.92,36.57 L216.92,29.89 L213.35,29.89 L204.32,0.92 L184.74,0.92 L184.74,7.5 L186.83,7.5 L179.94,29.89 L176.48,29.89 L176.48,36.57 L192.69,36.57 L192.69,29.89 L188.72,29.89 L189.79,26.42 L200.24,26.42 L201.31,29.89 L196.47,29.89 L196.47,36.57 L216.92,36.57 Z M191.67,20.3 L194.99,9.28 L198.36,20.3 L191.67,20.3 Z M218.96,0.92 L218.96,7.65 L221.76,7.65 L221.76,29.79 L218.96,29.79 L218.96,36.57 L247.52,36.57 L247.52,23.31 L238.95,23.31 L238.95,29.79 L232.37,29.79 L232.37,7.65 L235.08,7.65 L235.08,0.92 L218.96,0.92 Z M283.78,0.92 L249.56,0.92 L249.56,14.18 L257.06,14.18 L257.06,7.65 L261.44,7.65 L261.44,29.79 L257.26,29.79 L257.26,36.57 L276.23,36.57 L276.23,29.79 L272,29.79 L272,7.65 L276.28,7.65 L276.28,14.18 L283.78,14.18 L283.78,0.92 Z"></path>
                    <path d="M0,133.57 L8.92,133.57 L9.48,129.64 C11.42,131.94 14.99,134.34 20.14,134.34 C26.21,134.34 33.66,131.48 33.66,123.52 C33.66,111.54 13.46,112.76 13.46,107.51 C13.46,105.72 15.5,104.81 16.98,104.81 C20.55,104.81 23.51,106.95 23.51,110.72 L32.74,110.72 L32.74,97.92 L23.97,97.92 L23.46,102.2 C21.42,98.38 17.08,97 12.8,97 C7.8,97 0.66,100.42 0.66,107.97 C0.66,120.97 20.24,119.29 20.24,123.27 C20.24,125.41 17.69,125.82 15.91,125.82 C13.77,125.72 9.48,125 9.48,120.72 L0,120.72 L0,133.57 Z M53.95,134.49 C65.48,134.49 71.91,127.45 71.91,115.92 C71.91,104.45 66.09,96.95 53.6,96.95 C43.04,96.95 35.7,104.55 35.7,115.57 C35.7,128.32 43.29,134.49 53.95,134.49 Z M53.95,126.48 C50.69,126.48 48.29,122.25 48.29,115.57 C48.29,109.24 50.43,104.76 53.55,104.81 C57.47,104.81 59.16,109.75 59.16,115.92 C59.16,122.25 57.17,126.48 53.95,126.48 Z M73.95,97.92 L73.95,104.65 L76.75,104.65 L76.75,126.79 L73.95,126.79 L73.95,133.57 L102.5,133.57 L102.5,120.31 L93.94,120.31 L93.94,126.79 L87.36,126.79 L87.36,104.65 L90.06,104.65 L90.06,97.92 L73.95,97.92 Z M104.55,97.92 L104.55,104.55 L107.4,104.55 L107.4,117.15 C107.4,128.73 112.91,134.13 123.21,134.44 C132.8,134.44 137.85,128.98 137.85,116.89 L137.85,104.5 L140.6,104.5 L140.6,97.92 L125.51,97.92 L125.51,104.65 L128.26,104.65 L128.26,115.46 C128.26,124.24 126.22,125.46 123.11,125.46 C119.85,125.46 118.01,123.73 118.01,115.52 L118.01,104.5 L120.76,104.5 L120.76,97.92 L104.55,97.92 Z M176.35,97.92 L142.13,97.92 L142.13,111.18 L149.63,111.18 L149.63,104.65 L154.01,104.65 L154.01,126.79 L149.83,126.79 L149.83,133.57 L168.8,133.57 L168.8,126.79 L164.57,126.79 L164.57,104.65 L168.86,104.65 L168.86,111.18 L176.35,111.18 L176.35,97.92 Z M178.39,97.92 L178.39,104.65 L181.61,104.65 L181.61,126.79 L178.39,126.79 L178.39,133.57 L195.32,133.57 L195.32,126.79 L192.16,126.79 L192.16,104.65 L195.32,104.65 L195.32,97.92 L178.39,97.92 Z M215.62,134.49 C227.15,134.49 233.57,127.45 233.57,115.92 C233.57,104.45 227.76,96.95 215.27,96.95 C204.71,96.95 197.36,104.55 197.36,115.57 C197.36,128.32 204.96,134.49 215.62,134.49 Z M215.62,126.48 C212.36,126.48 209.96,122.25 209.96,115.57 C209.96,109.24 212.1,104.76 215.22,104.81 C219.14,104.81 220.82,109.75 220.82,115.92 C220.82,122.25 218.84,126.48 215.62,126.48 Z M274.68,104.5 L274.68,97.92 L259.33,97.92 L259.33,104.5 L262.8,104.5 L262.8,116.64 L250.3,97.92 L235.67,97.92 L235.67,104.5 L238.62,104.5 L238.62,126.99 L235.62,126.99 L235.62,133.57 L251.27,133.57 L251.27,126.99 L247.35,126.99 L247.35,114.14 L260.35,133.57 L271.32,133.57 L271.32,104.5 L274.68,104.5 Z M277.23,133.57 L286.16,133.57 L286.72,129.64 C288.66,131.94 292.22,134.34 297.38,134.34 C303.44,134.34 310.89,131.48 310.89,123.52 C310.89,111.54 290.69,112.76 290.69,107.51 C290.69,105.72 292.73,104.81 294.21,104.81 C297.78,104.81 300.74,106.95 300.74,110.72 L309.97,110.72 L309.97,97.92 L301.2,97.92 L300.69,102.2 C298.65,98.38 294.32,97 290.03,97 C285.03,97 277.89,100.42 277.89,107.97 C277.89,120.97 297.48,119.29 297.48,123.27 C297.48,125.41 294.93,125.82 293.14,125.82 C291,125.72 286.72,125 286.72,120.72 L277.23,120.72 L277.23,133.57 Z"></path>
                </g>
            </g>
        </g>
    </g>
</svg>